<?xml version="1.0" encoding="UTF-8"?>
<svg width="39px" height="38px" viewBox="0 0 39 38" version="1.1" xmlns="http://www.w3.org/2000/svg" xmlns:xlink="http://www.w3.org/1999/xlink">
    <!-- Generator: Sketch 62 (91390) - https://sketch.com -->
    <title>Bathroom Icon</title>
    <desc>Created with Sketch.</desc>
    <defs>
        <polygon id="path-1" points="7.61523046e-06 0.0213074148 38.98998 0.0213074148 38.98998 3.31580842 7.61523046e-06 3.31580842"></polygon>
    </defs>
    <g id="Page-1" stroke="none" stroke-width="1" fill="none" fill-rule="evenodd">
        <g id="casaRoyal" transform="translate(-1207.000000, -3161.000000)">
            <g id="Section---Hot-Deal" transform="translate(240.000000, 2478.000000)">
                <g id="Property-Block" transform="translate(0.000000, 184.000000)">
                    <g id="Baths" transform="translate(967.000000, 497.000000)">
                        <g id="Bathroom-Icon" transform="translate(0.000000, 2.000000)">
                            <path d="M36.9079912,34.6283263 L36.2941275,33.1793764 C34.9830132,34.3282862 33.3933339,35.1664946 31.6407647,35.5777932 L32.7668289,37.0433443 C33.2210774,37.6344385 33.9373659,37.9872521 34.6829731,37.9872521 C35.4956705,37.9872521 36.2487407,37.5828072 36.6975062,36.9052802 C37.1462717,36.227677 37.2250132,35.3765226 36.9079912,34.6283263" id="Fill-1" fill="#9B9B9B"></path>
                            <path d="M2.69586012,33.1793535 L2.08207255,34.6283034 C1.76512665,35.3766521 1.84379198,36.2278064 2.29255752,36.9052573 C2.74132305,37.5826321 3.49446934,37.9872293 4.30716673,37.9872293 C5.0526978,37.9872293 5.76891022,37.6343395 6.22338717,37.043093 L7.34937515,35.5776942 C5.59672986,35.1665479 4.00697435,34.3282633 2.69586012,33.1793535" id="Fill-3" fill="#9B9B9B"></path>
                            <path d="M13.9441647,4.08779479 L13.8193511,4.08779479 C13.5110104,1.7835022 11.5336397,1.52304609e-05 9.14634108,1.52304609e-05 L8.09437315,1.52304609e-05 C5.49392425,1.52304609e-05 3.37818477,2.11567856 3.37818477,4.71620361 L3.37818477,14.5944521 L5.66831303,14.5944521 L5.66831303,4.71612745 C5.66831303,3.37843607 6.75668176,2.29006733 8.09437315,2.29006733 L9.14634108,2.29006733 C10.2667699,2.29006733 11.2117439,3.05372265 11.4893952,4.08771864 L11.3044212,4.08771864 C9.48270581,4.08771864 8.00062966,5.56979479 8.00062966,7.39151022 L8.00062966,9.32318958 C8.00062966,9.93560641 8.48183607,10.4342517 9.08656152,10.4652457 C9.10628497,10.4662357 9.12570381,10.4682156 9.14565571,10.4682156 L16.1028541,10.4682156 C16.7352228,10.4682156 17.2478802,9.95555832 17.2478802,9.32318958 L17.2478802,7.39158637 C17.2478802,5.56987094 15.7658802,4.08779479 13.9441647,4.08779479" id="Fill-5" fill="#9B9B9B"></path>
                            <path d="M1.28551944,23.5820766 L1.28551944,25.0352148 C1.28551944,29.7430265 5.11552345,33.5731066 9.82333507,33.5731066 L29.1667058,33.5731066 C33.8744413,33.5731066 37.7045214,29.7431026 37.7045214,25.0352148 L37.7045214,23.5820766 L1.28551944,23.5820766 Z" id="Fill-7" fill="#9B9B9B"></path>
                            <g id="Group-11" transform="translate(0.000000, 17.959226)">
                                <mask id="mask-2" fill="white">
                                    <use xlink:href="#path-1"></use>
                                </mask>
                                <g id="Clip-10"></g>
                                <path d="M37.3428132,0.0213074148 L1.64718196,0.0213074148 C0.738913427,0.0213835671 7.61523046e-06,0.760365531 7.61523046e-06,1.66863407 C7.61523046e-06,2.57690261 0.738913427,3.31580842 1.64718196,3.31580842 L37.3428132,3.31580842 C38.2510818,3.31580842 38.9899876,2.57690261 38.9899876,1.66863407 C38.9899876,0.760365531 38.2510818,0.0213074148 37.3428132,0.0213074148" id="Fill-9" fill="#9B9B9B" mask="url(#mask-2)"></path>
                            </g>
                        </g>
                    </g>
                </g>
            </g>
        </g>
    </g>
</svg>