<?xml version="1.0" encoding="UTF-8"?>
<svg width="63px" height="38px" viewBox="0 0 63 38" version="1.1" xmlns="http://www.w3.org/2000/svg" xmlns:xlink="http://www.w3.org/1999/xlink">
    <!-- Generator: Sketch 62 (91390) - https://sketch.com -->
    <title>Bedroom Icon</title>
    <desc>Created with Sketch.</desc>
    <g id="Page-1" stroke="none" stroke-width="1" fill="none" fill-rule="evenodd">
        <g id="casaRoyal" transform="translate(-1054.000000, -3162.000000)" fill="#9B9B9B">
            <g id="Section---Hot-Deal" transform="translate(240.000000, 2478.000000)">
                <g id="Property-Block" transform="translate(0.000000, 184.000000)">
                    <g id="Beds" transform="translate(814.000000, 497.000000)">
                        <g id="Bedroom-Icon" transform="translate(-0.000000, 3.000000)">
                            <path d="M54.2238423,18.649541 L60.4014192,18.649541 L60.4014192,13.090409 C60.4014192,11.9359787 59.4600087,10.9945682 58.3055783,10.9945682 L23.5077483,10.9945682 C23.6178315,11.2213313 23.7209056,11.4480944 23.8239797,11.6817291 C24.5248152,13.3446586 24.8820702,15.1106622 24.8820702,16.9316387 C24.8820702,17.5087852 24.8477121,18.0860691 24.7721244,18.649541 L54.2238423,18.649541 Z" id="Fill-1"></path>
                            <path d="M11.3999931,5.85462495 C11.1663584,5.85462495 10.9395953,5.86149656 10.7128322,5.87523978 L10.7128322,18.6426901 L18.3471902,18.6426901 L22.3395953,18.6426901 C22.4289949,18.0792181 22.4701559,17.5088745 22.4701559,16.9247877 C22.4701559,14.7396159 21.8379678,12.7056882 20.7453819,10.9945888 C18.7869732,7.90236456 15.3305537,5.85462495 11.3999931,5.85462495" id="Fill-3"></path>
                            <path d="M2.06148282,38 L6.24629295,38 C7.38698011,38 8.30777577,37.0792043 8.30777577,35.9385172 L8.30777577,29.362387 L54.2238698,29.362387 L54.2238698,35.9385172 C54.2238698,37.0792043 55.1446655,38 56.2853526,38 L60.4701627,38 C61.6108499,38 62.5316456,37.0792043 62.5316456,35.9385172 L62.5316456,23.116094 C62.5316456,21.9753382 61.6108499,21.0546112 60.4701627,21.0546112 L54.2238698,21.0546112 L8.30777577,21.0546112 L8.30777577,6.29439421 L8.30777577,2.06148282 C8.30777577,0.92079566 7.38698011,0 6.24629295,0 L2.06148282,0 C0.92079566,0 0,0.92079566 0,2.06148282 L0,9.73707052 L0,12.3826401 L0,21.4737794 L0,24.119349 L0,35.9385172 C0,37.0723327 0.92079566,38 2.06148282,38" id="Fill-5"></path>
                        </g>
                    </g>
                </g>
            </g>
        </g>
    </g>
</svg>