<?xml version="1.0" encoding="UTF-8"?>
<svg width="38px" height="38px" viewBox="0 0 38 38" version="1.1" xmlns="http://www.w3.org/2000/svg" xmlns:xlink="http://www.w3.org/1999/xlink">
    <!-- Generator: Sketch 62 (91390) - https://sketch.com -->
    <title>Area Icon</title>
    <desc>Created with Sketch.</desc>
    <defs>
        <polygon id="path-1" points="0.0412300504 0 26.8685903 0 26.8685903 28.6888372 0.0412300504 28.6888372"></polygon>
    </defs>
    <g id="Page-1" stroke="none" stroke-width="1" fill="none" fill-rule="evenodd">
        <g id="casaRoyal" transform="translate(-921.000000, -3162.000000)">
            <g id="Section---Hot-Deal" transform="translate(240.000000, 2478.000000)">
                <g id="Property-Block" transform="translate(0.000000, 184.000000)">
                    <g id="Area-Size" transform="translate(681.000000, 497.000000)">
                        <g id="Area-Icon" transform="translate(0.000000, 3.000000)">
                            <path d="M37.6232097,33.9907715 L35.0574688,31.8288985 C34.5562346,31.4066273 33.7440831,31.4066273 33.2427721,31.8288985 C32.7415379,32.2509754 32.7415379,32.9358708 33.2427721,33.3579476 L33.6187169,33.6747806 L9.01542945,33.6747806 L9.39145115,33.3579476 C9.89268531,32.9359355 9.89268531,32.2510402 9.39145115,31.8288985 C8.89021699,31.4066273 8.07806546,31.4066273 7.57675443,31.8288985 L5.01101355,33.9907715 C4.75928194,34.2025548 4.63414634,34.491409 4.63414634,34.7560409 C4.63414634,35.0263722 4.76589229,35.3151616 5.01101355,35.5213103 L7.57675443,37.683248 C8.07806546,38.105584 8.89006326,38.105584 9.39145115,37.683248 C9.89268531,37.2611712 9.89268531,36.576211 9.39145115,36.1541341 L9.01542945,35.837366 L33.6187169,35.837366 L33.2427721,36.1541341 C32.7415379,36.5761463 32.7415379,37.2611064 33.2427721,37.683248 C33.7440831,38.105584 34.5560809,38.105584 35.0574688,37.683248 L37.6232097,35.5213103 C37.8745569,35.3100451 38,35.0212557 38,34.7560409 C38,34.4785854 37.8684078,34.1969849 37.6232097,33.9907715" id="Fill-1" fill="#9B9B9B"></path>
                            <path d="M4.64199667,26.7764122 L4.32517087,27.1507419 L4.32517087,4.36139586 L4.64199667,4.73580205 C5.0643879,5.23478073 5.74855547,5.23478073 6.17101146,4.73580205 C6.59340268,4.23674684 6.59340268,3.4284029 6.17101146,2.92927118 L4.00840983,0.374234015 C3.58608337,-0.124744672 2.90178627,-0.124744672 2.47939505,0.374234015 L0.316858183,2.92927118 C-0.105533042,3.42832638 -0.105533042,4.23667032 0.316858183,4.73580205 C0.739184645,5.23478073 1.42348175,5.23478073 1.84587297,4.73580205 L2.16263401,4.36139586 L2.16263401,27.1507419 L1.84580821,26.7763357 C1.42348175,26.2774335 0.739184645,26.2774335 0.316793419,26.7763357 C-0.105597806,27.2753909 -0.105597806,28.0837348 0.316793419,28.5828666 L2.47933028,31.1379037 C2.90172151,31.6369589 3.58588908,31.6369589 4.00834507,31.1379037 L6.17088193,28.5828666 C6.59327316,28.0839644 6.59327316,27.2754674 6.17094669,26.7764122 C5.74862023,26.2774335 5.06432313,26.2774335 4.64199667,26.7764122" id="Fill-3" fill="#9B9B9B"></path>
                            <g id="Group-7" transform="translate(11.121951, 0.000000)">
                                <mask id="mask-2" fill="white">
                                    <use xlink:href="#path-1"></use>
                                </mask>
                                <g id="Clip-6"></g>
                                <path d="M20.7715095,10.1254251 L26.8685903,10.1254251 L26.8685903,1.2656734 C26.8685903,0.566484652 26.3223378,-3.79046271e-05 25.6491449,-3.79046271e-05 L8.98373217,-3.79046271e-05 L8.98373217,10.1254251 L15.080813,10.1254251 C15.7540059,10.1254251 16.3002584,10.6919477 16.3002584,11.3911364 C16.3002584,12.0903252 15.7540059,12.6568477 15.080813,12.6568477 L8.98373217,12.6568477 L8.98373217,16.4539058 C8.98373217,17.1530946 8.43747965,17.7196172 7.76428678,17.7196172 C7.09109392,17.7196172 6.5448414,17.1530946 6.5448414,16.4539058 L6.5448414,-3.79046271e-05 L1.26067544,-3.79046271e-05 C0.587482569,-3.79046271e-05 0.0412300504,0.566484652 0.0412300504,1.2656734 L0.0412300504,27.4231259 C0.0412300504,28.1223146 0.587482569,28.6888372 1.26067544,28.6888372 L6.5448414,28.6888372 L6.5448414,22.3604323 C6.5448414,21.6612435 7.09109392,21.094721 7.76428678,21.094721 C8.43747965,21.094721 8.98373217,21.6612435 8.98373217,22.3604323 L8.98373217,28.6888372 L25.6491449,28.6888372 C26.3223378,28.6888372 26.8685903,28.1223146 26.8685903,27.4231259 L26.8685903,12.6568477 L20.7715095,12.6568477 C20.0983166,12.6568477 19.5520641,12.0903252 19.5520641,11.3911364 C19.5520641,10.6919477 20.0982436,10.1254251 20.7715095,10.1254251" id="Fill-5" fill="#9B9B9B" mask="url(#mask-2)"></path>
                            </g>
                        </g>
                    </g>
                </g>
            </g>
        </g>
    </g>
</svg>