<?xml version="1.0" encoding="UTF-8"?>
<svg width="36px" height="38px" viewBox="0 0 36 38" version="1.1" xmlns="http://www.w3.org/2000/svg" xmlns:xlink="http://www.w3.org/1999/xlink">
    <!-- Generator: Sketch 62 (91390) - https://sketch.com -->
    <title>Garage Icon</title>
    <desc>Created with Sketch.</desc>
    <defs>
        <polygon id="path-1" points="0 0.492382979 35.492 0.492382979 35.492 14.4428057 0 14.4428057"></polygon>
    </defs>
    <g id="Page-1" stroke="none" stroke-width="1" fill="none" fill-rule="evenodd">
        <g id="casaRoyal" transform="translate(-1345.000000, -3159.000000)">
            <g id="Section---Hot-Deal" transform="translate(240.000000, 2478.000000)">
                <g id="Property-Block" transform="translate(0.000000, 184.000000)">
                    <g id="Garage" transform="translate(1105.000000, 497.000000)">
                        <g id="Garage-Icon" transform="translate(0.000000, 0.000000)">
                            <g id="Group-3" transform="translate(0.000000, 0.316289)">
                                <mask id="mask-2" fill="white">
                                    <use xlink:href="#path-1"></use>
                                </mask>
                                <g id="Clip-2"></g>
                                <path d="M34.5807277,10.7669362 L19.7526426,1.08017021 C18.530983,0.289446809 16.9576213,0.297531915 15.7424298,1.09714894 L0.898982979,10.7750213 C-0.0219106383,11.3822128 -0.2774,12.6216596 0.328982979,13.5433617 C0.936174468,14.4650638 2.17481277,14.7205532 3.09813191,14.1125532 L17.7612809,4.55110638 L32.4074511,14.1206383 C32.7446,14.3381277 33.1197489,14.4408085 33.4916638,14.4408085 C34.148983,14.4408085 34.7893234,14.1198298 35.1709404,13.529617 C35.7716638,12.6030638 35.5064723,11.3676596 34.5807277,10.7669362" id="Fill-1" fill="#9B9B9B" mask="url(#mask-2)"></path>
                            </g>
                            <path d="M26.6835191,30.8143617 C25.3195617,30.8143617 24.2135191,29.7091277 24.2135191,28.3427447 C24.2135191,26.9779787 25.3195617,25.8719362 26.6835191,25.8719362 C28.0482851,25.8719362 29.1551362,26.9771702 29.1551362,28.3427447 C29.1551362,29.7091277 28.0482851,30.8143617 26.6835191,30.8143617 L26.6835191,30.8143617 Z M9.42505106,21.9191277 L9.71045532,18.9454255 C9.91824255,16.7834681 11.7123277,15.1551277 13.8847957,15.1551277 L14.3302851,15.1551277 L14.3302851,16.089766 C14.3302851,16.9007021 14.9746681,17.5467021 15.7847957,17.5467021 L19.7109234,17.5467021 C20.5210511,17.5467021 21.1767532,16.9007021 21.1767532,16.089766 L21.1767532,15.1559362 L21.6109234,15.1559362 C23.7833915,15.1559362 25.5774766,16.7834681 25.7844553,18.946234 L26.0706681,21.9199362 L9.42505106,21.9191277 Z M8.80896596,30.8143617 C7.44500851,30.8143617 6.33896596,29.7091277 6.33896596,28.3427447 C6.33896596,26.9779787 7.44500851,25.8719362 8.80896596,25.8719362 C10.1737319,25.8719362 11.280583,26.9771702 11.280583,28.3427447 C11.280583,29.7091277 10.1737319,30.8143617 8.80896596,30.8143617 L8.80896596,30.8143617 Z M30.8303702,23.1359362 C30.7082851,22.4365745 30.1002851,21.9191277 29.3912213,21.9191277 L28.5762426,21.9191277 L28.266583,18.6955957 C27.9359021,15.2481064 25.074583,12.6398511 21.6109234,12.6398511 L13.8847957,12.6398511 C10.4203277,12.6398511 7.55981702,15.2489149 7.22832766,18.6955957 L6.9194766,21.9191277 L6.10368936,21.9191277 C5.39381702,21.9191277 4.78662553,22.4365745 4.6629234,23.1359362 L3.45015745,30.0115106 C3.29977447,30.8636809 3.54071064,31.7409149 4.09696596,32.4022766 C4.6322,33.039383 5.42049787,33.419383 6.24517872,33.4476809 L6.24517872,34.5892979 C6.24517872,36.2055106 7.54041277,37.5072128 9.15824255,37.5072128 L10.0783277,37.5072128 C11.6945404,37.5072128 13.0091787,36.2055106 13.0091787,34.5892979 L13.0091787,33.4654681 L22.4946255,33.4654681 L22.4946255,34.5868723 C22.4946255,36.2038936 23.7987532,37.5072128 25.414966,37.5072128 L26.3358596,37.5072128 C27.9520723,37.5072128 29.257817,36.2038936 29.257817,34.5868723 L29.257817,33.4476809 C30.0824979,33.419383 30.8659447,33.042617 31.3995617,32.4063191 C31.955817,31.7425319 32.1935191,30.8701489 32.0447532,30.0171702 L30.8303702,23.1359362 Z" id="Fill-4" fill="#9B9B9B"></path>
                        </g>
                    </g>
                </g>
            </g>
        </g>
    </g>
</svg>