<?xml version="1.0" encoding="UTF-8"?>
<svg width="24px" height="16px" viewBox="0 0 24 16" version="1.1" xmlns="http://www.w3.org/2000/svg" xmlns:xlink="http://www.w3.org/1999/xlink">
    <!-- Generator: Sketch 62 (91390) - https://sketch.com -->
    <title>Flag</title>
    <desc>Created with Sketch.</desc>
    <defs>
        <polygon id="path-1" points="0 0.0262380952 23.9532585 0.0262380952 23.9532585 15.999981 0 15.999981"></polygon>
        <polygon id="path-3" points="0 16 24 16 24 0 0 0"></polygon>
    </defs>
    <g id="Page-1" stroke="none" stroke-width="1" fill="none" fill-rule="evenodd">
        <g id="casaRoyal" transform="translate(-343.000000, -6999.000000)">
            <g id="Section---Agencies" transform="translate(1.000000, 6416.000000)">
                <g id="Agency-Card-1" transform="translate(240.000000, 313.000000)">
                    <g id="Location" transform="translate(102.000000, 267.000000)">
                        <g id="Flag" transform="translate(0.000000, 3.000000)">
                            <g id="Group-3">
                                <mask id="mask-2" fill="white">
                                    <use xlink:href="#path-1"></use>
                                </mask>
                                <g id="Clip-2"></g>
                                <path d="M23.5402058,15.999981 L0.41300117,15.999981 C0.184930994,15.999981 -4.67836257e-06,15.8117905 -4.67836257e-06,15.5796476 L-4.67836257e-06,0.4466 C-4.67836257e-06,0.214457143 0.184930994,0.0262190476 0.41300117,0.0262190476 L23.5402526,0.0262190476 C23.7683228,0.0262190476 23.9532585,0.214457143 23.9532585,0.4466 L23.9532585,15.5796476 C23.9532585,15.8118381 23.768276,15.999981 23.5402058,15.999981" id="Fill-1" fill="#F5F5F5" mask="url(#mask-2)"></path>
                            </g>
                            <path d="M24,1 L0,1 L0,0.342104243 C0,0.153187367 0.185296513,0 0.413811692,0 L23.5861883,0 C23.8147035,0 24,0.153187367 24,0.342104243 L24,1 Z" id="Fill-4" fill="#FF4B55"></path>
                            <mask id="mask-4" fill="white">
                                <use xlink:href="#path-3"></use>
                            </mask>
                            <g id="Clip-7"></g>
                            <polygon id="Fill-6" fill="#FF4B55" mask="url(#mask-4)" points="0 6 24 6 24 5 0 5"></polygon>
                            <polygon id="Fill-8" fill="#FF4B55" mask="url(#mask-4)" points="0 4 24 4 24 3 0 3"></polygon>
                            <path d="M24,9 L0.4138125,9 C0.185296875,9 0,8.84681263 0,8.65789576 L0,8 L24,8 L24,9 Z" id="Fill-9" fill="#FF4B55" mask="url(#mask-4)"></path>
                            <polygon id="Fill-10" fill="#FF4B55" mask="url(#mask-4)" points="0 13 24 13 24 12 0 12"></polygon>
                            <path d="M23.5861875,16 L0.4138125,16 C0.185296875,16 0,15.8468455 0,15.6579213 L0,15 L24,15 L24,15.65796 C24,15.8468842 23.8147031,16 23.5861875,16" id="Fill-11" fill="#FF4B55" mask="url(#mask-4)"></path>
                            <polygon id="Fill-12" fill="#FF4B55" mask="url(#mask-4)" points="0 11 24 11 24 10 0 10"></polygon>
                            <path d="M10.5925293,0 L0.407424501,0 C0.182436458,0 0,0.196916263 0,0.439822837 L0,8.56012734 C0,8.80303391 0.182436458,9 0.407424501,9 L10.5925755,9 C10.8175635,9 11,8.80303391 11,8.56012734 L11,0.439822837 C11,0.196916263 10.8175174,0 10.5925293,0" id="Fill-13" fill="#41479B" mask="url(#mask-4)"></path>
                            <path d="M1.5404725,1.03055721 L1.64070478,1.34518973 L1.95755985,1.34771323 C1.99859661,1.34808907 2.01557556,1.40285446 1.98259227,1.42835795 L1.72770271,1.62540596 L1.82331835,1.94159553 C1.83573197,1.9825085 1.7911558,2.01644156 1.75776213,1.9914213 L1.5,1.79861492 L1.24223787,1.99147499 C1.2088442,2.01644156 1.16437062,1.98256219 1.17668165,1.94164922 L1.27229729,1.62545965 L1.01740773,1.42841164 C0.984424436,1.40285446 1.00140339,1.34814276 1.04244015,1.34776692 L1.35929522,1.34524342 L1.4595275,1.0306109 C1.47245408,0.989805319 1.52744333,0.989805319 1.5404725,1.03055721" id="Fill-14" fill="#F5F5F5" mask="url(#mask-4)"></path>
                            <path d="M1.5404725,2.03051817 L1.64070478,2.34516336 L1.95755985,2.34768696 C1.99859661,2.34806282 2.01557556,2.40283041 1.98259227,2.42833493 L1.72770271,2.62539087 L1.82331835,2.94159318 C1.83573197,2.98250779 1.7911558,3.01644222 1.75776213,2.99142095 L1.5,2.79860681 L1.24223787,2.99147464 C1.2088442,3.01644222 1.16437062,2.98256149 1.17668165,2.94164687 L1.27229729,2.62544457 L1.01740773,2.42838862 C0.984424436,2.40283041 1.00140339,2.34811651 1.04244015,2.34774066 L1.35929522,2.34521705 L1.4595275,2.03057186 C1.47245408,1.98981833 1.52744333,1.98981833 1.5404725,2.03051817" id="Fill-15" fill="#F5F5F5" mask="url(#mask-4)"></path>
                            <path d="M1.5404725,4.03051817 L1.64070478,4.34516336 L1.95755985,4.34768696 C1.99859661,4.34806282 2.01557556,4.40283041 1.98259227,4.42833493 L1.72770271,4.62539087 L1.82331835,4.94159318 C1.83573197,4.98250779 1.7911558,5.01644222 1.75776213,4.99142095 L1.5,4.79860681 L1.24223787,4.99147464 C1.2088442,5.01644222 1.16437062,4.98256149 1.17668165,4.94164687 L1.27229729,4.62544457 L1.01740773,4.42838862 C0.984424436,4.40283041 1.00140339,4.34811651 1.04244015,4.34774066 L1.35929522,4.34521705 L1.4595275,4.03057186 C1.47245408,3.98981833 1.52744333,3.98981833 1.5404725,4.03051817" id="Fill-16" fill="#F5F5F5" mask="url(#mask-4)"></path>
                            <path d="M1.5404725,5.03055721 L1.64070478,5.34518973 L1.95755985,5.34771323 C1.99859661,5.34808907 2.01557556,5.40285446 1.98259227,5.42835795 L1.72770271,5.62540596 L1.82331835,5.94159553 C1.83573197,5.9825085 1.7911558,6.01644156 1.75776213,5.9914213 L1.5,5.79861492 L1.24223787,5.99147499 C1.2088442,6.01644156 1.16437062,5.98256219 1.17668165,5.94164922 L1.27229729,5.62545965 L1.01740773,5.42841164 C0.984424436,5.40285446 1.00140339,5.34814276 1.04244015,5.34776692 L1.35929522,5.34524342 L1.4595275,5.0306109 C1.47245408,4.98980532 1.52744333,4.98980532 1.5404725,5.03055721" id="Fill-17" fill="#F5F5F5" mask="url(#mask-4)"></path>
                            <path d="M1.5404725,7.03059625 L1.64070478,7.3452161 L1.95755985,7.3477395 C1.99859661,7.34811532 2.01557556,7.4028785 1.98259227,7.42838097 L1.72770271,7.62542104 L1.82331835,7.94159788 C1.83573197,7.9825092 1.7911558,8.0164409 1.75776213,7.99142164 L1.5,7.79862303 L1.24223787,7.99147533 C1.2088442,8.0164409 1.16437062,7.98256289 1.17668165,7.94165157 L1.27229729,7.62547473 L1.01740773,7.42843466 C0.984424436,7.4028785 1.00140339,7.34816901 1.04244015,7.34779319 L1.35929522,7.34526978 L1.4595275,7.03064994 C1.47245408,6.98979231 1.52744333,6.98979231 1.5404725,7.03059625" id="Fill-18" fill="#F5F5F5" mask="url(#mask-4)"></path>
                            <path d="M2.5404725,2.03052563 L2.64070478,2.34517862 L2.95755985,2.34770228 C2.99859661,2.34807815 3.01557556,2.4028471 2.98259227,2.42835224 L2.72770271,2.62541307 L2.82331835,2.94162321 C2.83573197,2.98253883 2.7911558,3.0164741 2.75776213,2.99145221 L2.5,2.7985796 L2.24223787,2.99145221 C2.2088442,3.01642041 2.16437062,2.98253883 2.17668165,2.94162321 L2.27229729,2.62541307 L2.01740773,2.42835224 C1.98442444,2.4027934 2.00140339,2.34807815 2.04244015,2.34770228 L2.35929522,2.34517862 L2.4595275,2.03052563 C2.47240278,1.98982479 2.52749463,1.98982479 2.5404725,2.03052563" id="Fill-19" fill="#F5F5F5" mask="url(#mask-4)"></path>
                            <path d="M2.5404725,3.03056468 L2.64070478,3.34520498 L2.95755985,3.34772855 C2.99859661,3.3481044 3.01557556,3.40287114 2.98259227,3.42837526 L2.72770271,3.62542815 L2.82331835,3.94162556 C2.83573197,3.98253954 2.7911558,4.01647344 2.75776213,3.99145256 L2.5,3.79858771 L2.24223787,3.99145256 C2.2088442,4.01641975 2.16437062,3.98259323 2.17668165,3.94162556 L2.27229729,3.62542815 L2.01740773,3.42837526 C1.98442444,3.40281745 2.00140339,3.3481044 2.04244015,3.34772855 L2.35929522,3.34520498 L2.4595275,3.03056468 C2.47240278,2.98981177 2.52749463,2.98981177 2.5404725,3.03056468" id="Fill-20" fill="#F5F5F5" mask="url(#mask-4)"></path>
                            <path d="M2.5404725,4.03056468 L2.64070478,4.34520498 L2.95755985,4.34772855 C2.99859661,4.3481044 3.01557556,4.40287114 2.98259227,4.42837526 L2.72770271,4.62542815 L2.82331835,4.94162556 C2.83573197,4.98253954 2.7911558,5.01647344 2.75776213,4.99145256 L2.5,4.79858771 L2.24223787,4.99145256 C2.2088442,5.01641975 2.16437062,4.98253954 2.17668165,4.94162556 L2.27229729,4.62542815 L2.01740773,4.42837526 C1.98442444,4.40281745 2.00140339,4.3481044 2.04244015,4.34772855 L2.35929522,4.34520498 L2.4595275,4.03056468 C2.47240278,3.98981177 2.52749463,3.98981177 2.5404725,4.03056468" id="Fill-21" fill="#F5F5F5" mask="url(#mask-4)"></path>
                            <path d="M2.5404725,6.03052563 L2.64070478,6.34517862 L2.95755985,6.34770228 C2.99859661,6.34807815 3.01557556,6.4028471 2.98259227,6.42835224 L2.72770271,6.62541307 L2.82331835,6.94162321 C2.83573197,6.98253883 2.7911558,7.0164741 2.75776213,6.99145221 L2.5,6.7985796 L2.24223787,6.99145221 C2.2088442,7.01642041 2.16437062,6.98253883 2.17668165,6.94162321 L2.27229729,6.62541307 L2.01740773,6.42835224 C1.98442444,6.4027934 2.00140339,6.34807815 2.04244015,6.34770228 L2.35929522,6.34517862 L2.4595275,6.03052563 C2.47240278,5.98982479 2.52749463,5.98982479 2.5404725,6.03052563" id="Fill-22" fill="#F5F5F5" mask="url(#mask-4)"></path>
                            <path d="M3.5404725,1.03056468 L3.64070478,1.34520498 L3.95755985,1.34772855 C3.99859661,1.3481044 4.01557556,1.40287114 3.98259227,1.42837526 L3.72770271,1.62542815 L3.82331835,1.94162556 C3.83573197,1.98253954 3.7911558,2.01647344 3.75776213,1.99145256 L3.5,1.79858771 L3.24223787,1.99145256 C3.2088442,2.01641975 3.16437062,1.98253954 3.17668165,1.94162556 L3.27229729,1.62542815 L3.01740773,1.42837526 C2.98442444,1.40281745 3.00140339,1.3481044 3.04244015,1.34772855 L3.35929522,1.34520498 L3.4595275,1.03056468 C3.47245408,0.989811775 3.52749463,0.989811775 3.5404725,1.03056468" id="Fill-23" fill="#F5F5F5" mask="url(#mask-4)"></path>
                            <path d="M3.5404725,2.03052563 L3.64070478,2.34517862 L3.95755985,2.34770228 C3.99859661,2.34807815 4.01557556,2.4028471 3.98259227,2.42835224 L3.72770271,2.62541307 L3.82331835,2.94162321 C3.83573197,2.98253883 3.7911558,3.0164741 3.75776213,2.99145221 L3.5,2.7985796 L3.24223787,2.99145221 C3.2088442,3.01642041 3.16437062,2.98253883 3.17668165,2.94162321 L3.27229729,2.62541307 L3.01740773,2.42835224 C2.98442444,2.4027934 3.00140339,2.34807815 3.04244015,2.34770228 L3.35929522,2.34517862 L3.4595275,2.03052563 C3.47245408,1.98982479 3.52749463,1.98982479 3.5404725,2.03052563" id="Fill-24" fill="#F5F5F5" mask="url(#mask-4)"></path>
                            <path d="M3.5404725,4.03052563 L3.64070478,4.34517862 L3.95755985,4.34770228 C3.99859661,4.34807815 4.01557556,4.4028471 3.98259227,4.42835224 L3.72770271,4.62541307 L3.82331835,4.94162321 C3.83573197,4.98253883 3.7911558,5.0164741 3.75776213,4.99145221 L3.5,4.7985796 L3.24223787,4.99145221 C3.2088442,5.01642041 3.16437062,4.98253883 3.17668165,4.94162321 L3.27229729,4.62541307 L3.01740773,4.42835224 C2.98442444,4.4027934 3.00140339,4.34807815 3.04244015,4.34770228 L3.35929522,4.34517862 L3.4595275,4.03052563 C3.47245408,3.98982479 3.52749463,3.98982479 3.5404725,4.03052563" id="Fill-25" fill="#F5F5F5" mask="url(#mask-4)"></path>
                            <path d="M3.5404725,5.03056468 L3.64070478,5.34520498 L3.95755985,5.34772855 C3.99859661,5.3481044 4.01557556,5.40287114 3.98259227,5.42837526 L3.72770271,5.62542815 L3.82331835,5.94162556 C3.83573197,5.98253954 3.7911558,6.01647344 3.75776213,5.99145256 L3.5,5.79858771 L3.24223787,5.99145256 C3.2088442,6.01641975 3.16437062,5.98253954 3.17668165,5.94162556 L3.27229729,5.62542815 L3.01740773,5.42837526 C2.98442444,5.40281745 3.00140339,5.3481044 3.04244015,5.34772855 L3.35929522,5.34520498 L3.4595275,5.03056468 C3.47245408,4.98981177 3.52749463,4.98981177 3.5404725,5.03056468" id="Fill-26" fill="#F5F5F5" mask="url(#mask-4)"></path>
                            <path d="M3.5404725,7.03060371 L3.64070478,7.34523135 L3.95755985,7.34775482 C3.99859661,7.34813065 4.01557556,7.40289519 3.98259227,7.42839828 L3.72770271,7.62544324 L3.82331835,7.94162791 C3.83573197,7.98254024 3.7911558,8.01647278 3.75776213,7.9914529 L3.5,7.79859582 L3.24223787,7.9914529 C3.2088442,8.01641909 3.16437062,7.98254024 3.17668165,7.94162791 L3.27229729,7.62544324 L3.01740773,7.42839828 C2.98442444,7.4028415 3.00140339,7.34813065 3.04244015,7.34775482 L3.35929522,7.34523135 L3.4595275,7.03060371 C3.47245408,6.98979876 3.52749463,6.98979876 3.5404725,7.03060371" id="Fill-27" fill="#F5F5F5" mask="url(#mask-4)"></path>
                            <path d="M4.5404725,2.03052563 L4.64070478,2.34517862 L4.95755985,2.34770228 C4.99859661,2.34807815 5.01557556,2.4028471 4.98259227,2.42835224 L4.72770271,2.62541307 L4.82331835,2.94162321 C4.83573197,2.98253883 4.7911558,3.0164741 4.75776213,2.99145221 L4.5,2.7985796 L4.24223787,2.99145221 C4.2088442,3.01642041 4.16437062,2.98253883 4.17668165,2.94162321 L4.27229729,2.62541307 L4.01740773,2.42835224 C3.98442444,2.4027934 4.00140339,2.34807815 4.04244015,2.34770228 L4.35929522,2.34517862 L4.4595275,2.03052563 C4.47240278,1.98982479 4.52749463,1.98982479 4.5404725,2.03052563" id="Fill-28" fill="#F5F5F5" mask="url(#mask-4)"></path>
                            <path d="M4.5404725,3.03056468 L4.64070478,3.34520498 L4.95755985,3.34772855 C4.99859661,3.3481044 5.01557556,3.40287114 4.98259227,3.42837526 L4.72770271,3.62542815 L4.82331835,3.94162556 C4.83573197,3.98253954 4.7911558,4.01647344 4.75776213,3.99145256 L4.5,3.79858771 L4.24223787,3.99145256 C4.2088442,4.01641975 4.16437062,3.98259323 4.17668165,3.94162556 L4.27229729,3.62542815 L4.01740773,3.42837526 C3.98442444,3.40281745 4.00140339,3.3481044 4.04244015,3.34772855 L4.35929522,3.34520498 L4.4595275,3.03056468 C4.47240278,2.98981177 4.52749463,2.98981177 4.5404725,3.03056468" id="Fill-29" fill="#F5F5F5" mask="url(#mask-4)"></path>
                            <path d="M4.5404725,4.03056468 L4.64070478,4.34520498 L4.95755985,4.34772855 C4.99859661,4.3481044 5.01557556,4.40287114 4.98259227,4.42837526 L4.72770271,4.62542815 L4.82331835,4.94162556 C4.83573197,4.98253954 4.7911558,5.01647344 4.75776213,4.99145256 L4.5,4.79858771 L4.24223787,4.99145256 C4.2088442,5.01641975 4.16437062,4.98253954 4.17668165,4.94162556 L4.27229729,4.62542815 L4.01740773,4.42837526 C3.98442444,4.40281745 4.00140339,4.3481044 4.04244015,4.34772855 L4.35929522,4.34520498 L4.4595275,4.03056468 C4.47240278,3.98981177 4.52749463,3.98981177 4.5404725,4.03056468" id="Fill-30" fill="#F5F5F5" mask="url(#mask-4)"></path>
                            <path d="M4.5404725,6.03052563 L4.64070478,6.34517862 L4.95755985,6.34770228 C4.99859661,6.34807815 5.01557556,6.4028471 4.98259227,6.42835224 L4.72770271,6.62541307 L4.82331835,6.94162321 C4.83573197,6.98253883 4.7911558,7.0164741 4.75776213,6.99145221 L4.5,6.7985796 L4.24223787,6.99145221 C4.2088442,7.01642041 4.16437062,6.98253883 4.17668165,6.94162321 L4.27229729,6.62541307 L4.01740773,6.42835224 C3.98442444,6.4027934 4.00140339,6.34807815 4.04244015,6.34770228 L4.35929522,6.34517862 L4.4595275,6.03052563 C4.47240278,5.98982479 4.52749463,5.98982479 4.5404725,6.03052563" id="Fill-31" fill="#F5F5F5" mask="url(#mask-4)"></path>
                            <path d="M5.54049607,1.03056468 L5.64072321,1.34520498 L5.95756203,1.34772855 C5.99859668,1.3481044 6.01557477,1.40287114 5.98259316,1.42837526 L5.72771668,1.62542815 L5.82332742,1.94162556 C5.8357404,1.98253954 5.79116651,2.01647344 5.75777456,1.99145256 L5.49997435,1.79858771 L5.24222544,1.99145256 C5.20883349,2.01641975 5.16436219,1.98253954 5.17667258,1.94162556 L5.27228332,1.62542815 L5.01740684,1.42837526 C4.98442523,1.40281745 5.00140332,1.3481044 5.04243797,1.34772855 L5.35927679,1.34520498 L5.45950393,1.03056468 C5.47248114,0.989811775 5.52751886,0.989811775 5.54049607,1.03056468" id="Fill-32" fill="#F5F5F5" mask="url(#mask-4)"></path>
                            <path d="M5.54049607,2.03052563 L5.64072321,2.34517862 L5.95756203,2.34770228 C5.99859668,2.34807815 6.01557477,2.4028471 5.98259316,2.42835224 L5.72771668,2.62541307 L5.82332742,2.94162321 C5.8357404,2.98253883 5.79116651,3.0164741 5.75777456,2.99145221 L5.49997435,2.7985796 L5.24222544,2.99145221 C5.20883349,3.01642041 5.16436219,2.98253883 5.17667258,2.94162321 L5.27228332,2.62541307 L5.01740684,2.42835224 C4.98442523,2.4027934 5.00140332,2.34807815 5.04243797,2.34770228 L5.35927679,2.34517862 L5.45950393,2.03052563 C5.47248114,1.98982479 5.52751886,1.98982479 5.54049607,2.03052563" id="Fill-33" fill="#F5F5F5" mask="url(#mask-4)"></path>
                            <path d="M5.54049607,4.03052563 L5.64072321,4.34517862 L5.95756203,4.34770228 C5.99859668,4.34807815 6.01557477,4.4028471 5.98259316,4.42835224 L5.72771668,4.62541307 L5.82332742,4.94162321 C5.8357404,4.98253883 5.79116651,5.0164741 5.75777456,4.99145221 L5.49997435,4.7985796 L5.24222544,4.99145221 C5.20883349,5.01642041 5.16436219,4.98253883 5.17667258,4.94162321 L5.27228332,4.62541307 L5.01740684,4.42835224 C4.98442523,4.4027934 5.00140332,4.34807815 5.04243797,4.34770228 L5.35927679,4.34517862 L5.45950393,4.03052563 C5.47248114,3.98982479 5.52751886,3.98982479 5.54049607,4.03052563" id="Fill-34" fill="#F5F5F5" mask="url(#mask-4)"></path>
                            <path d="M5.54049607,5.03056468 L5.64072321,5.34520498 L5.95756203,5.34772855 C5.99859668,5.3481044 6.01557477,5.40287114 5.98259316,5.42837526 L5.72771668,5.62542815 L5.82332742,5.94162556 C5.8357404,5.98253954 5.79116651,6.01647344 5.75777456,5.99145256 L5.49997435,5.79858771 L5.24222544,5.99145256 C5.20883349,6.01641975 5.16436219,5.98253954 5.17667258,5.94162556 L5.27228332,5.62542815 L5.01740684,5.42837526 C4.98442523,5.40281745 5.00140332,5.3481044 5.04243797,5.34772855 L5.35927679,5.34520498 L5.45950393,5.03056468 C5.47248114,4.98981177 5.52751886,4.98981177 5.54049607,5.03056468" id="Fill-35" fill="#F5F5F5" mask="url(#mask-4)"></path>
                            <path d="M5.54049607,7.03060371 L5.64072321,7.34523135 L5.95756203,7.34775482 C5.99859668,7.34813065 6.01557477,7.40289519 5.98259316,7.42839828 L5.72771668,7.62544324 L5.82332742,7.94162791 C5.8357404,7.98254024 5.79116651,8.01647278 5.75777456,7.9914529 L5.49997435,7.79859582 L5.24222544,7.9914529 C5.20883349,8.01641909 5.16436219,7.98254024 5.17667258,7.94162791 L5.27228332,7.62544324 L5.01740684,7.42839828 C4.98442523,7.4028415 5.00140332,7.34813065 5.04243797,7.34775482 L5.35927679,7.34523135 L5.45950393,7.03060371 C5.47248114,6.98979876 5.52751886,6.98979876 5.54049607,7.03060371" id="Fill-36" fill="#F5F5F5" mask="url(#mask-4)"></path>
                            <path d="M6.5404725,2.03052563 L6.64070478,2.34517862 L6.95755985,2.34770228 C6.99859661,2.34807815 7.01557556,2.4028471 6.98259227,2.42835224 L6.72770271,2.62541307 L6.82331835,2.94162321 C6.83573197,2.98253883 6.7911558,3.0164741 6.75776213,2.99145221 L6.5,2.7985796 L6.24223787,2.99145221 C6.2088442,3.01642041 6.16437062,2.98253883 6.17668165,2.94162321 L6.27229729,2.62541307 L6.01740773,2.42835224 C5.98442444,2.4027934 6.00140339,2.34807815 6.04244015,2.34770228 L6.35929522,2.34517862 L6.4595275,2.03052563 C6.47250537,1.98982479 6.52749463,1.98982479 6.5404725,2.03052563" id="Fill-37" fill="#F5F5F5" mask="url(#mask-4)"></path>
                            <path d="M6.5404725,3.03056468 L6.64070478,3.34520498 L6.95755985,3.34772855 C6.99859661,3.3481044 7.01557556,3.40287114 6.98259227,3.42837526 L6.72770271,3.62542815 L6.82331835,3.94162556 C6.83573197,3.98253954 6.7911558,4.01647344 6.75776213,3.99145256 L6.5,3.79858771 L6.24223787,3.99145256 C6.2088442,4.01641975 6.16437062,3.98259323 6.17668165,3.94162556 L6.27229729,3.62542815 L6.01740773,3.42837526 C5.98442444,3.40281745 6.00140339,3.3481044 6.04244015,3.34772855 L6.35929522,3.34520498 L6.4595275,3.03056468 C6.47250537,2.98981177 6.52749463,2.98981177 6.5404725,3.03056468" id="Fill-38" fill="#F5F5F5" mask="url(#mask-4)"></path>
                            <path d="M6.5404725,4.03056468 L6.64070478,4.34520498 L6.95755985,4.34772855 C6.99859661,4.3481044 7.01557556,4.40287114 6.98259227,4.42837526 L6.72770271,4.62542815 L6.82331835,4.94162556 C6.83573197,4.98253954 6.7911558,5.01647344 6.75776213,4.99145256 L6.5,4.79858771 L6.24223787,4.99145256 C6.2088442,5.01641975 6.16437062,4.98253954 6.17668165,4.94162556 L6.27229729,4.62542815 L6.01740773,4.42837526 C5.98442444,4.40281745 6.00140339,4.3481044 6.04244015,4.34772855 L6.35929522,4.34520498 L6.4595275,4.03056468 C6.47250537,3.98981177 6.52749463,3.98981177 6.5404725,4.03056468" id="Fill-39" fill="#F5F5F5" mask="url(#mask-4)"></path>
                            <path d="M6.5404725,6.03052563 L6.64070478,6.34517862 L6.95755985,6.34770228 C6.99859661,6.34807815 7.01557556,6.4028471 6.98259227,6.42835224 L6.72770271,6.62541307 L6.82331835,6.94162321 C6.83573197,6.98253883 6.7911558,7.0164741 6.75776213,6.99145221 L6.5,6.7985796 L6.24223787,6.99145221 C6.2088442,7.01642041 6.16437062,6.98253883 6.17668165,6.94162321 L6.27229729,6.62541307 L6.01740773,6.42835224 C5.98442444,6.4027934 6.00140339,6.34807815 6.04244015,6.34770228 L6.35929522,6.34517862 L6.4595275,6.03052563 C6.47250537,5.98982479 6.52749463,5.98982479 6.5404725,6.03052563" id="Fill-40" fill="#F5F5F5" mask="url(#mask-4)"></path>
                            <path d="M7.5404725,1.03056468 L7.64070478,1.34520498 L7.95755985,1.34772855 C7.99859661,1.3481044 8.01557556,1.40287114 7.98259227,1.42837526 L7.72770271,1.62542815 L7.82331835,1.94162556 C7.83573197,1.98253954 7.7911558,2.01647344 7.75776213,1.99145256 L7.5,1.79858771 L7.24223787,1.99145256 C7.2088442,2.01641975 7.16437062,1.98253954 7.17668165,1.94162556 L7.27229729,1.62542815 L7.01740773,1.42837526 C6.98442444,1.40281745 7.00140339,1.3481044 7.04244015,1.34772855 L7.35929522,1.34520498 L7.4595275,1.03056468 C7.47240278,0.989811775 7.52749463,0.989811775 7.5404725,1.03056468" id="Fill-41" fill="#F5F5F5" mask="url(#mask-4)"></path>
                            <path d="M7.5404725,2.03052563 L7.64070478,2.34517862 L7.95755985,2.34770228 C7.99859661,2.34807815 8.01557556,2.4028471 7.98259227,2.42835224 L7.72770271,2.62541307 L7.82331835,2.94162321 C7.83573197,2.98253883 7.7911558,3.0164741 7.75776213,2.99145221 L7.5,2.7985796 L7.24223787,2.99145221 C7.2088442,3.01642041 7.16437062,2.98253883 7.17668165,2.94162321 L7.27229729,2.62541307 L7.01740773,2.42835224 C6.98442444,2.4027934 7.00140339,2.34807815 7.04244015,2.34770228 L7.35929522,2.34517862 L7.4595275,2.03052563 C7.47240278,1.98982479 7.52749463,1.98982479 7.5404725,2.03052563" id="Fill-42" fill="#F5F5F5" mask="url(#mask-4)"></path>
                            <path d="M7.5404725,4.03052563 L7.64070478,4.34517862 L7.95755985,4.34770228 C7.99859661,4.34807815 8.01557556,4.4028471 7.98259227,4.42835224 L7.72770271,4.62541307 L7.82331835,4.94162321 C7.83573197,4.98253883 7.7911558,5.0164741 7.75776213,4.99145221 L7.5,4.7985796 L7.24223787,4.99145221 C7.2088442,5.01642041 7.16437062,4.98253883 7.17668165,4.94162321 L7.27229729,4.62541307 L7.01740773,4.42835224 C6.98442444,4.4027934 7.00140339,4.34807815 7.04244015,4.34770228 L7.35929522,4.34517862 L7.4595275,4.03052563 C7.47240278,3.98982479 7.52749463,3.98982479 7.5404725,4.03052563" id="Fill-43" fill="#F5F5F5" mask="url(#mask-4)"></path>
                            <path d="M7.5404725,5.03056468 L7.64070478,5.34520498 L7.95755985,5.34772855 C7.99859661,5.3481044 8.01557556,5.40287114 7.98259227,5.42837526 L7.72770271,5.62542815 L7.82331835,5.94162556 C7.83573197,5.98253954 7.7911558,6.01647344 7.75776213,5.99145256 L7.5,5.79858771 L7.24223787,5.99145256 C7.2088442,6.01641975 7.16437062,5.98253954 7.17668165,5.94162556 L7.27229729,5.62542815 L7.01740773,5.42837526 C6.98442444,5.40281745 7.00140339,5.3481044 7.04244015,5.34772855 L7.35929522,5.34520498 L7.4595275,5.03056468 C7.47240278,4.98981177 7.52749463,4.98981177 7.5404725,5.03056468" id="Fill-44" fill="#F5F5F5" mask="url(#mask-4)"></path>
                            <path d="M7.5404725,7.03060371 L7.64070478,7.34523135 L7.95755985,7.34775482 C7.99859661,7.34813065 8.01557556,7.40289519 7.98259227,7.42839828 L7.72770271,7.62544324 L7.82331835,7.94162791 C7.83573197,7.98254024 7.7911558,8.01647278 7.75776213,7.9914529 L7.5,7.79859582 L7.24223787,7.9914529 C7.2088442,8.01641909 7.16437062,7.98254024 7.17668165,7.94162791 L7.27229729,7.62544324 L7.01740773,7.42839828 C6.98442444,7.4028415 7.00140339,7.34813065 7.04244015,7.34775482 L7.35929522,7.34523135 L7.4595275,7.03060371 C7.47240278,6.98979876 7.52749463,6.98979876 7.5404725,7.03060371" id="Fill-45" fill="#F5F5F5" mask="url(#mask-4)"></path>
                            <path d="M8.5404725,2.03052563 L8.64070478,2.34517862 L8.95755985,2.34770228 C8.99859661,2.34807815 9.01557556,2.4028471 8.98259227,2.42835224 L8.72770271,2.62541307 L8.82331835,2.94162321 C8.83573197,2.98253883 8.7911558,3.0164741 8.75776213,2.99145221 L8.5,2.7985796 L8.24223787,2.99145221 C8.2088442,3.01642041 8.16437062,2.98253883 8.17668165,2.94162321 L8.27229729,2.62541307 L8.01740773,2.42835224 C7.98442444,2.4027934 8.00140339,2.34807815 8.04244015,2.34770228 L8.35929522,2.34517862 L8.4595275,2.03052563 C8.47245408,1.98982479 8.52754592,1.98982479 8.5404725,2.03052563" id="Fill-46" fill="#F5F5F5" mask="url(#mask-4)"></path>
                            <path d="M8.5404725,3.03056468 L8.64070478,3.34520498 L8.95755985,3.34772855 C8.99859661,3.3481044 9.01557556,3.40287114 8.98259227,3.42837526 L8.72770271,3.62542815 L8.82331835,3.94162556 C8.83573197,3.98253954 8.7911558,4.01647344 8.75776213,3.99145256 L8.5,3.79858771 L8.24223787,3.99145256 C8.2088442,4.01641975 8.16437062,3.98259323 8.17668165,3.94162556 L8.27229729,3.62542815 L8.01740773,3.42837526 C7.98442444,3.40281745 8.00140339,3.3481044 8.04244015,3.34772855 L8.35929522,3.34520498 L8.4595275,3.03056468 C8.47245408,2.98981177 8.52754592,2.98981177 8.5404725,3.03056468" id="Fill-47" fill="#F5F5F5" mask="url(#mask-4)"></path>
                            <path d="M8.5404725,4.03056468 L8.64070478,4.34520498 L8.95755985,4.34772855 C8.99859661,4.3481044 9.01557556,4.40287114 8.98259227,4.42837526 L8.72770271,4.62542815 L8.82331835,4.94162556 C8.83573197,4.98253954 8.7911558,5.01647344 8.75776213,4.99145256 L8.5,4.79858771 L8.24223787,4.99145256 C8.2088442,5.01641975 8.16437062,4.98253954 8.17668165,4.94162556 L8.27229729,4.62542815 L8.01740773,4.42837526 C7.98442444,4.40281745 8.00140339,4.3481044 8.04244015,4.34772855 L8.35929522,4.34520498 L8.4595275,4.03056468 C8.47245408,3.98981177 8.52754592,3.98981177 8.5404725,4.03056468" id="Fill-48" fill="#F5F5F5" mask="url(#mask-4)"></path>
                            <path d="M8.5404725,6.03052563 L8.64070478,6.34517862 L8.95755985,6.34770228 C8.99859661,6.34807815 9.01557556,6.4028471 8.98259227,6.42835224 L8.72770271,6.62541307 L8.82331835,6.94162321 C8.83573197,6.98253883 8.7911558,7.0164741 8.75776213,6.99145221 L8.5,6.7985796 L8.24223787,6.99145221 C8.2088442,7.01642041 8.16437062,6.98253883 8.17668165,6.94162321 L8.27229729,6.62541307 L8.01740773,6.42835224 C7.98442444,6.4027934 8.00140339,6.34807815 8.04244015,6.34770228 L8.35929522,6.34517862 L8.4595275,6.03052563 C8.47245408,5.98982479 8.52754592,5.98982479 8.5404725,6.03052563" id="Fill-49" fill="#F5F5F5" mask="url(#mask-4)"></path>
                            <path d="M9.5404725,1.03056468 L9.64070478,1.34520498 L9.95755985,1.34772855 C9.99859661,1.3481044 10.0155756,1.40287114 9.98259227,1.42837526 L9.72770271,1.62542815 L9.82331835,1.94162556 C9.83573197,1.98253954 9.7911558,2.01647344 9.75776213,1.99145256 L9.5,1.79858771 L9.24223787,1.99145256 C9.2088442,2.01641975 9.16437062,1.98253954 9.17668165,1.94162556 L9.27229729,1.62542815 L9.01740773,1.42837526 C8.98442444,1.40281745 9.00140339,1.3481044 9.04244015,1.34772855 L9.35929522,1.34520498 L9.4595275,1.03056468 C9.47245408,0.989811775 9.52744333,0.989811775 9.5404725,1.03056468" id="Fill-50" fill="#F5F5F5" mask="url(#mask-4)"></path>
                            <path d="M9.5404725,2.03052563 L9.64070478,2.34517862 L9.95755985,2.34770228 C9.99859661,2.34807815 10.0155756,2.4028471 9.98259227,2.42835224 L9.72770271,2.62541307 L9.82331835,2.94162321 C9.83573197,2.98253883 9.7911558,3.0164741 9.75776213,2.99145221 L9.5,2.7985796 L9.24223787,2.99145221 C9.2088442,3.01642041 9.16437062,2.98253883 9.17668165,2.94162321 L9.27229729,2.62541307 L9.01740773,2.42835224 C8.98442444,2.4027934 9.00140339,2.34807815 9.04244015,2.34770228 L9.35929522,2.34517862 L9.4595275,2.03052563 C9.47245408,1.98982479 9.52744333,1.98982479 9.5404725,2.03052563" id="Fill-51" fill="#F5F5F5" mask="url(#mask-4)"></path>
                            <path d="M9.5404725,4.03052563 L9.64070478,4.34517862 L9.95755985,4.34770228 C9.99859661,4.34807815 10.0155756,4.4028471 9.98259227,4.42835224 L9.72770271,4.62541307 L9.82331835,4.94162321 C9.83573197,4.98253883 9.7911558,5.0164741 9.75776213,4.99145221 L9.5,4.7985796 L9.24223787,4.99145221 C9.2088442,5.01642041 9.16437062,4.98253883 9.17668165,4.94162321 L9.27229729,4.62541307 L9.01740773,4.42835224 C8.98442444,4.4027934 9.00140339,4.34807815 9.04244015,4.34770228 L9.35929522,4.34517862 L9.4595275,4.03052563 C9.47245408,3.98982479 9.52744333,3.98982479 9.5404725,4.03052563" id="Fill-52" fill="#F5F5F5" mask="url(#mask-4)"></path>
                            <path d="M9.5404725,5.03056468 L9.64070478,5.34520498 L9.95755985,5.34772855 C9.99859661,5.3481044 10.0155756,5.40287114 9.98259227,5.42837526 L9.72770271,5.62542815 L9.82331835,5.94162556 C9.83573197,5.98253954 9.7911558,6.01647344 9.75776213,5.99145256 L9.5,5.79858771 L9.24223787,5.99145256 C9.2088442,6.01641975 9.16437062,5.98253954 9.17668165,5.94162556 L9.27229729,5.62542815 L9.01740773,5.42837526 C8.98442444,5.40281745 9.00140339,5.3481044 9.04244015,5.34772855 L9.35929522,5.34520498 L9.4595275,5.03056468 C9.47245408,4.98981177 9.52744333,4.98981177 9.5404725,5.03056468" id="Fill-53" fill="#F5F5F5" mask="url(#mask-4)"></path>
                            <path d="M9.5404725,7.03060371 L9.64070478,7.34523135 L9.95755985,7.34775482 C9.99859661,7.34813065 10.0155756,7.40289519 9.98259227,7.42839828 L9.72770271,7.62544324 L9.82331835,7.94162791 C9.83573197,7.98254024 9.7911558,8.01647278 9.75776213,7.9914529 L9.5,7.79859582 L9.24223787,7.9914529 C9.2088442,8.01641909 9.16437062,7.98254024 9.17668165,7.94162791 L9.27229729,7.62544324 L9.01740773,7.42839828 C8.98442444,7.4028415 9.00140339,7.34813065 9.04244015,7.34775482 L9.35929522,7.34523135 L9.4595275,7.03060371 C9.47245408,6.98979876 9.52744333,6.98979876 9.5404725,7.03060371" id="Fill-54" fill="#F5F5F5" mask="url(#mask-4)"></path>
                        </g>
                    </g>
                </g>
            </g>
        </g>
    </g>
</svg>