<?xml version="1.0" encoding="UTF-8"?>
<svg width="18px" height="18px" viewBox="0 0 18 18" version="1.1" xmlns="http://www.w3.org/2000/svg" xmlns:xlink="http://www.w3.org/1999/xlink">
    <!-- Generator: Sketch 62 (91390) - https://sketch.com -->
    <title>Time Icon</title>
    <desc>Created with Sketch.</desc>
    <defs>
        <polygon id="path-1" points="0 0 18 0 18 17.9999895 0 17.9999895"></polygon>
    </defs>
    <g id="Page-1" stroke="none" stroke-width="1" fill="none" fill-rule="evenodd">
        <g id="casaRoyal" transform="translate(-272.000000, -8263.000000)">
            <g id="Section---News" transform="translate(-1.000000, 7457.000000)">
                <g id="News-Block-1" transform="translate(242.000000, 339.000000)">
                    <g id="Date" transform="translate(31.000000, 467.000000)">
                        <g id="Time-Icon">
                            <g id="Group-3">
                                <mask id="mask-2" fill="white">
                                    <use xlink:href="#path-1"></use>
                                </mask>
                                <g id="Clip-2"></g>
                                <path d="M9,16.5457863 C4.83925781,16.5457863 1.45420313,13.1607316 1.45420313,8.99998945 C1.45420313,4.83924727 4.83925781,1.45419258 9,1.45419258 C13.1607422,1.45419258 16.5457969,4.83924727 16.5457969,8.99998945 C16.5457969,13.1607316 13.1607422,16.5457863 9,16.5457863 M15.3639492,2.63604023 C13.6640742,0.936165234 11.4039844,-1.0546875e-05 9,-1.0546875e-05 C6.59601563,-1.0546875e-05 4.33592578,0.936200391 2.63605078,2.63604023 C0.936175781,4.33588008 0,6.59600508 0,8.99998945 C0,11.4039738 0.936175781,13.6640637 2.63605078,15.3639387 C4.33589063,17.0638137 6.59601563,17.9999895 9,17.9999895 C11.4039844,17.9999895 13.6640742,17.0638137 15.3639492,15.3639387 C17.0638242,13.6640637 18,11.4039738 18,8.99998945 C18,6.59600508 17.0638242,4.33588008 15.3639492,2.63604023" id="Fill-1" fill="#FF5E14" mask="url(#mask-2)"></path>
                            </g>
                            <path d="M11.7835951,10.7447028 L9.47782505,8.45029863 L9.47782505,3.73528157 C9.47782505,3.32920933 9.14702576,3 8.73891253,3 C8.33083503,3 8,3.32920933 8,3.73528157 L8,8.75487059 C8,8.94994312 8.07784984,9.13690984 8.21643613,9.27481513 L10.7385709,11.7845919 C10.8828378,11.9281854 11.0719783,12 11.261083,12 C11.4501877,12 11.6392925,11.9281854 11.7836309,11.7845919 C12.072129,11.4974047 12.072129,11.0318544 11.7835951,10.7447028" id="Fill-4" fill="#FF5E14"></path>
                        </g>
                    </g>
                </g>
            </g>
        </g>
    </g>
</svg>